<?xml version="1.0" encoding="UTF-8" standalone="no"?>
<!DOCTYPE svg PUBLIC "-//W3C//DTD SVG 1.1//EN" "http://www.w3.org/Graphics/SVG/1.1/DTD/svg11.dtd">
<svg width="100%" height="100%" viewBox="0 0 1024 251" version="1.1" xmlns="http://www.w3.org/2000/svg" xmlns:xlink="http://www.w3.org/1999/xlink" xml:space="preserve" xmlns:serif="http://www.serif.com/" style="fill-rule:evenodd;clip-rule:evenodd;stroke-linejoin:round;stroke-miterlimit:2;">
    <g transform="matrix(1,0,0,1,-1894,-1412.97)">
        <g id="Artboard3" transform="matrix(1,0,0,0.658672,-0.641461,524.661)">
            <rect x="1894.64" y="1348.63" width="1024" height="380.685" style="fill:none;"/>
            <g transform="matrix(1.18597,0,0,1.80054,1811.29,617.099)">
                <g transform="matrix(0.670875,0,0,0.670875,2.82084,158.096)">
                    <path d="M364.406,381.674L364.406,673.377L288.552,673.377L288.552,550.858L265.85,550.858L265.85,673.377L189.997,673.377L189.997,381.674L265.85,381.674L265.85,485.995L288.552,485.995L288.552,381.674L364.406,381.674Z" style="fill:rgb(81,110,180);fill-rule:nonzero;"/>
                    <path d="M622.632,381.674L622.632,576.623C622.632,598.724 621.911,614.249 620.47,623.198C619.028,632.147 614.764,641.336 607.677,650.765C600.591,660.194 591.252,667.341 579.66,672.206C568.069,677.07 554.406,679.503 538.671,679.503C521.254,679.503 505.879,676.62 492.546,670.854C479.213,665.089 469.243,657.581 462.637,648.332C456.031,639.083 452.127,629.324 450.926,619.054C449.724,608.784 449.124,587.193 449.124,554.281L449.124,381.674L524.977,381.674L524.977,600.406C524.977,613.138 525.668,621.276 527.049,624.82C528.431,628.363 531.223,630.135 535.427,630.135C540.232,630.135 543.325,628.183 544.706,624.279C546.088,620.375 546.778,611.156 546.778,596.622L546.778,381.674L622.632,381.674Z" style="fill:rgb(81,110,180);fill-rule:nonzero;"/>
                    <path d="M707.35,381.674L761.042,381.674C796.837,381.674 821.07,383.055 833.742,385.818C846.415,388.581 856.745,395.638 864.732,406.989C872.72,418.34 876.714,436.447 876.714,461.311C876.714,484.013 873.891,499.268 868.246,507.076C862.6,514.883 851.49,519.568 834.914,521.129C849.928,524.853 860.018,529.838 865.183,536.084C870.348,542.33 873.561,548.065 874.822,553.29C876.083,558.515 876.714,572.899 876.714,596.442L876.714,673.377L806.266,673.377L806.266,576.443C806.266,560.828 805.035,551.158 802.572,547.435C800.11,543.711 793.654,541.849 783.204,541.849L783.204,673.377L707.35,673.377L707.35,381.674ZM783.204,431.582L783.204,496.445C791.732,496.445 797.708,495.274 801.131,492.932C804.554,490.59 806.266,482.992 806.266,470.14L806.266,454.104C806.266,444.855 804.614,438.789 801.311,435.907C798.008,433.024 791.972,431.582 783.204,431.582Z" style="fill:rgb(81,110,180);fill-rule:nonzero;"/>
                    <path d="M961.432,381.674L1037.11,381.674C1061.01,381.674 1079.12,383.534 1091.43,387.255C1103.74,390.976 1113.68,398.508 1121.25,409.852C1128.81,421.195 1132.6,439.471 1132.6,464.678C1132.6,481.723 1129.92,493.607 1124.58,500.329C1119.24,507.051 1108.69,512.212 1092.96,515.814C1110.5,519.78 1122.39,526.36 1128.63,535.554C1134.88,544.749 1138,558.841 1138,577.831L1138,604.871C1138,624.581 1135.75,639.184 1131.25,648.679C1126.74,658.173 1119.57,664.664 1109.72,668.149C1099.87,671.634 1079.69,673.377 1049.18,673.377L961.432,673.377L961.432,381.674ZM1037.29,431.582L1037.29,496.445C1040.53,496.325 1043.05,496.265 1044.85,496.265C1052.3,496.265 1057.05,494.433 1059.09,490.77C1061.13,487.106 1062.15,476.626 1062.15,459.329C1062.15,450.2 1061.31,443.804 1059.63,440.141C1057.95,436.477 1055.75,434.165 1053.05,433.204C1050.35,432.243 1045.09,431.703 1037.29,431.582ZM1037.29,541.849L1037.29,623.468C1047.98,623.108 1054.79,621.426 1057.74,618.423C1060.68,615.42 1062.15,608.033 1062.15,596.262L1062.15,569.056C1062.15,556.563 1060.83,548.996 1058.19,546.354C1055.54,543.711 1048.58,542.21 1037.29,541.849Z" style="fill:rgb(81,110,180);fill-rule:nonzero;"/>
                    <path d="M1381.28,469.96L1310.83,469.96L1310.83,448.339C1310.83,438.249 1309.93,431.823 1308.12,429.06C1306.32,426.297 1303.32,424.916 1299.12,424.916C1294.55,424.916 1291.1,426.779 1288.76,430.506C1286.41,434.232 1285.24,439.882 1285.24,447.455C1285.24,457.19 1286.56,464.521 1289.19,469.45C1291.71,474.379 1298.85,480.323 1310.63,487.284C1344.39,507.325 1365.66,523.772 1374.43,536.624C1383.2,549.477 1387.58,570.197 1387.58,598.784C1387.58,619.565 1385.15,634.879 1380.28,644.729C1375.42,654.578 1366.02,662.836 1352.09,669.503C1338.15,676.169 1321.94,679.503 1303.44,679.503C1283.14,679.503 1265.81,675.659 1251.46,667.971C1237.11,660.284 1227.71,650.494 1223.26,638.603C1218.82,626.711 1216.6,609.835 1216.6,587.974L1216.6,568.875L1287.04,568.875L1287.04,604.37C1287.04,615.3 1288.04,622.327 1290.02,625.45C1292,628.573 1295.51,630.135 1300.56,630.135C1305.6,630.135 1309.36,628.153 1311.82,624.189C1314.28,620.225 1315.51,614.339 1315.51,606.532C1315.51,589.355 1313.17,578.124 1308.48,572.839C1303.68,567.554 1291.85,558.726 1272.99,546.354C1254.13,533.861 1241.64,524.793 1235.51,519.147C1229.39,513.502 1224.31,505.694 1220.29,495.725C1216.27,485.755 1214.25,473.023 1214.25,457.528C1214.25,435.186 1217.11,418.85 1222.81,408.52C1228.52,398.19 1237.74,390.112 1250.47,384.287C1263.2,378.461 1278.58,375.548 1296.59,375.548C1316.29,375.548 1333.08,378.731 1346.95,385.097C1360.83,391.464 1370.01,399.481 1374.52,409.151C1379.02,418.82 1381.28,435.246 1381.28,458.428L1381.28,469.96Z" style="fill:rgb(81,110,180);fill-rule:nonzero;"/>
                </g>
                <g transform="matrix(0.670875,0,0,0.670875,-17.1792,158.096)">
                    <path d="M364.406,381.674L364.406,673.377L288.552,673.377L288.552,550.858L265.85,550.858L265.85,673.377L189.997,673.377L189.997,381.674L265.85,381.674L265.85,485.995L288.552,485.995L288.552,381.674L364.406,381.674Z" style="fill:rgb(110,148,94);fill-rule:nonzero;"/>
                    <path d="M622.632,381.674L622.632,576.623C622.632,598.724 621.911,614.249 620.47,623.198C619.028,632.147 614.764,641.336 607.677,650.765C600.591,660.194 591.252,667.341 579.66,672.206C568.069,677.07 554.406,679.503 538.671,679.503C521.254,679.503 505.879,676.62 492.546,670.854C479.213,665.089 469.243,657.581 462.637,648.332C456.031,639.083 452.127,629.324 450.926,619.054C449.724,608.784 449.124,587.193 449.124,554.281L449.124,381.674L524.977,381.674L524.977,600.406C524.977,613.138 525.668,621.276 527.049,624.82C528.431,628.363 531.223,630.135 535.427,630.135C540.232,630.135 543.325,628.183 544.706,624.279C546.088,620.375 546.778,611.156 546.778,596.622L546.778,381.674L622.632,381.674Z" style="fill:rgb(110,148,94);fill-rule:nonzero;"/>
                    <path d="M707.35,381.674L761.042,381.674C796.837,381.674 821.07,383.055 833.742,385.818C846.415,388.581 856.745,395.638 864.732,406.989C872.72,418.34 876.714,436.447 876.714,461.311C876.714,484.013 873.891,499.268 868.246,507.076C862.6,514.883 851.49,519.568 834.914,521.129C849.928,524.853 860.018,529.838 865.183,536.084C870.348,542.33 873.561,548.065 874.822,553.29C876.083,558.515 876.714,572.899 876.714,596.442L876.714,673.377L806.266,673.377L806.266,576.443C806.266,560.828 805.035,551.158 802.572,547.435C800.11,543.711 793.654,541.849 783.204,541.849L783.204,673.377L707.35,673.377L707.35,381.674ZM783.204,431.582L783.204,496.445C791.732,496.445 797.708,495.274 801.131,492.932C804.554,490.59 806.266,482.992 806.266,470.14L806.266,454.104C806.266,444.855 804.614,438.789 801.311,435.907C798.008,433.024 791.972,431.582 783.204,431.582Z" style="fill:rgb(110,148,94);fill-rule:nonzero;"/>
                    <path d="M961.432,381.674L1037.11,381.674C1061.01,381.674 1079.12,383.534 1091.43,387.255C1103.74,390.976 1113.68,398.508 1121.25,409.852C1128.81,421.195 1132.6,439.471 1132.6,464.678C1132.6,481.723 1129.92,493.607 1124.58,500.329C1119.24,507.051 1108.69,512.212 1092.96,515.814C1110.5,519.78 1122.39,526.36 1128.63,535.554C1134.88,544.749 1138,558.841 1138,577.831L1138,604.871C1138,624.581 1135.75,639.184 1131.25,648.679C1126.74,658.173 1119.57,664.664 1109.72,668.149C1099.87,671.634 1079.69,673.377 1049.18,673.377L961.432,673.377L961.432,381.674ZM1037.29,431.582L1037.29,496.445C1040.53,496.325 1043.05,496.265 1044.85,496.265C1052.3,496.265 1057.05,494.433 1059.09,490.77C1061.13,487.106 1062.15,476.626 1062.15,459.329C1062.15,450.2 1061.31,443.804 1059.63,440.141C1057.95,436.477 1055.75,434.165 1053.05,433.204C1050.35,432.243 1045.09,431.703 1037.29,431.582ZM1037.29,541.849L1037.29,623.468C1047.98,623.108 1054.79,621.426 1057.74,618.423C1060.68,615.42 1062.15,608.033 1062.15,596.262L1062.15,569.056C1062.15,556.563 1060.83,548.996 1058.19,546.354C1055.54,543.711 1048.58,542.21 1037.29,541.849Z" style="fill:rgb(110,148,94);fill-rule:nonzero;"/>
                    <path d="M1381.28,469.96L1310.83,469.96L1310.83,448.339C1310.83,438.249 1309.93,431.823 1308.12,429.06C1306.32,426.297 1303.32,424.916 1299.12,424.916C1294.55,424.916 1291.1,426.779 1288.76,430.506C1286.41,434.232 1285.24,439.882 1285.24,447.455C1285.24,457.19 1286.56,464.521 1289.19,469.45C1291.71,474.379 1298.85,480.323 1310.63,487.284C1344.39,507.325 1365.66,523.772 1374.43,536.624C1383.2,549.477 1387.58,570.197 1387.58,598.784C1387.58,619.565 1385.15,634.879 1380.28,644.729C1375.42,654.578 1366.02,662.836 1352.09,669.503C1338.15,676.169 1321.94,679.503 1303.44,679.503C1283.14,679.503 1265.81,675.659 1251.46,667.971C1237.11,660.284 1227.71,650.494 1223.26,638.603C1218.82,626.711 1216.6,609.835 1216.6,587.974L1216.6,568.875L1287.04,568.875L1287.04,604.37C1287.04,615.3 1288.04,622.327 1290.02,625.45C1292,628.573 1295.51,630.135 1300.56,630.135C1305.6,630.135 1309.36,628.153 1311.82,624.189C1314.28,620.225 1315.51,614.339 1315.51,606.532C1315.51,589.355 1313.17,578.124 1308.48,572.839C1303.68,567.554 1291.85,558.726 1272.99,546.354C1254.13,533.861 1241.64,524.793 1235.51,519.147C1229.39,513.502 1224.31,505.694 1220.29,495.725C1216.27,485.755 1214.25,473.023 1214.25,457.528C1214.25,435.186 1217.11,418.85 1222.81,408.52C1228.52,398.19 1237.74,390.112 1250.47,384.287C1263.2,378.461 1278.58,375.548 1296.59,375.548C1316.29,375.548 1333.08,378.731 1346.95,385.097C1360.83,391.464 1370.01,399.481 1374.52,409.151C1379.02,418.82 1381.28,435.246 1381.28,458.428L1381.28,469.96Z" style="fill:rgb(110,148,94);fill-rule:nonzero;"/>
                </g>
                <g transform="matrix(0.670875,0,0,0.670875,-37.1792,158.096)">
                    <path d="M364.406,381.674L364.406,673.377L288.552,673.377L288.552,550.858L265.85,550.858L265.85,673.377L189.997,673.377L189.997,381.674L265.85,381.674L265.85,485.995L288.552,485.995L288.552,381.674L364.406,381.674Z" style="fill:rgb(228,219,91);fill-rule:nonzero;"/>
                    <path d="M622.632,381.674L622.632,576.623C622.632,598.724 621.911,614.249 620.47,623.198C619.028,632.147 614.764,641.336 607.677,650.765C600.591,660.194 591.252,667.341 579.66,672.206C568.069,677.07 554.406,679.503 538.671,679.503C521.254,679.503 505.879,676.62 492.546,670.854C479.213,665.089 469.243,657.581 462.637,648.332C456.031,639.083 452.127,629.324 450.926,619.054C449.724,608.784 449.124,587.193 449.124,554.281L449.124,381.674L524.977,381.674L524.977,600.406C524.977,613.138 525.668,621.276 527.049,624.82C528.431,628.363 531.223,630.135 535.427,630.135C540.232,630.135 543.325,628.183 544.706,624.279C546.088,620.375 546.778,611.156 546.778,596.622L546.778,381.674L622.632,381.674Z" style="fill:rgb(228,219,91);fill-rule:nonzero;"/>
                    <path d="M707.35,381.674L761.042,381.674C796.837,381.674 821.07,383.055 833.742,385.818C846.415,388.581 856.745,395.638 864.732,406.989C872.72,418.34 876.714,436.447 876.714,461.311C876.714,484.013 873.891,499.268 868.246,507.076C862.6,514.883 851.49,519.568 834.914,521.129C849.928,524.853 860.018,529.838 865.183,536.084C870.348,542.33 873.561,548.065 874.822,553.29C876.083,558.515 876.714,572.899 876.714,596.442L876.714,673.377L806.266,673.377L806.266,576.443C806.266,560.828 805.035,551.158 802.572,547.435C800.11,543.711 793.654,541.849 783.204,541.849L783.204,673.377L707.35,673.377L707.35,381.674ZM783.204,431.582L783.204,496.445C791.732,496.445 797.708,495.274 801.131,492.932C804.554,490.59 806.266,482.992 806.266,470.14L806.266,454.104C806.266,444.855 804.614,438.789 801.311,435.907C798.008,433.024 791.972,431.582 783.204,431.582Z" style="fill:rgb(228,219,91);fill-rule:nonzero;"/>
                    <path d="M961.432,381.674L1037.11,381.674C1061.01,381.674 1079.12,383.534 1091.43,387.255C1103.74,390.976 1113.68,398.508 1121.25,409.852C1128.81,421.195 1132.6,439.471 1132.6,464.678C1132.6,481.723 1129.92,493.607 1124.58,500.329C1119.24,507.051 1108.69,512.212 1092.96,515.814C1110.5,519.78 1122.39,526.36 1128.63,535.554C1134.88,544.749 1138,558.841 1138,577.831L1138,604.871C1138,624.581 1135.75,639.184 1131.25,648.679C1126.74,658.173 1119.57,664.664 1109.72,668.149C1099.87,671.634 1079.69,673.377 1049.18,673.377L961.432,673.377L961.432,381.674ZM1037.29,431.582L1037.29,496.445C1040.53,496.325 1043.05,496.265 1044.85,496.265C1052.3,496.265 1057.05,494.433 1059.09,490.77C1061.13,487.106 1062.15,476.626 1062.15,459.329C1062.15,450.2 1061.31,443.804 1059.63,440.141C1057.95,436.477 1055.75,434.165 1053.05,433.204C1050.35,432.243 1045.09,431.703 1037.29,431.582ZM1037.29,541.849L1037.29,623.468C1047.98,623.108 1054.79,621.426 1057.74,618.423C1060.68,615.42 1062.15,608.033 1062.15,596.262L1062.15,569.056C1062.15,556.563 1060.83,548.996 1058.19,546.354C1055.54,543.711 1048.58,542.21 1037.29,541.849Z" style="fill:rgb(228,219,91);fill-rule:nonzero;"/>
                    <path d="M1381.28,469.96L1310.83,469.96L1310.83,448.339C1310.83,438.249 1309.93,431.823 1308.12,429.06C1306.32,426.297 1303.32,424.916 1299.12,424.916C1294.55,424.916 1291.1,426.779 1288.76,430.506C1286.41,434.232 1285.24,439.882 1285.24,447.455C1285.24,457.19 1286.56,464.521 1289.19,469.45C1291.71,474.379 1298.85,480.323 1310.63,487.284C1344.39,507.325 1365.66,523.772 1374.43,536.624C1383.2,549.477 1387.58,570.197 1387.58,598.784C1387.58,619.565 1385.15,634.879 1380.28,644.729C1375.42,654.578 1366.02,662.836 1352.09,669.503C1338.15,676.169 1321.94,679.503 1303.44,679.503C1283.14,679.503 1265.81,675.659 1251.46,667.971C1237.11,660.284 1227.71,650.494 1223.26,638.603C1218.82,626.711 1216.6,609.835 1216.6,587.974L1216.6,568.875L1287.04,568.875L1287.04,604.37C1287.04,615.3 1288.04,622.327 1290.02,625.45C1292,628.573 1295.51,630.135 1300.56,630.135C1305.6,630.135 1309.36,628.153 1311.82,624.189C1314.28,620.225 1315.51,614.339 1315.51,606.532C1315.51,589.355 1313.17,578.124 1308.48,572.839C1303.68,567.554 1291.85,558.726 1272.99,546.354C1254.13,533.861 1241.64,524.793 1235.51,519.147C1229.39,513.502 1224.31,505.694 1220.29,495.725C1216.27,485.755 1214.25,473.023 1214.25,457.528C1214.25,435.186 1217.11,418.85 1222.81,408.52C1228.52,398.19 1237.74,390.112 1250.47,384.287C1263.2,378.461 1278.58,375.548 1296.59,375.548C1316.29,375.548 1333.08,378.731 1346.95,385.097C1360.83,391.464 1370.01,399.481 1374.52,409.151C1379.02,418.82 1381.28,435.246 1381.28,458.428L1381.28,469.96Z" style="fill:rgb(228,219,91);fill-rule:nonzero;"/>
                </g>
                <g transform="matrix(0.670875,0,0,0.670875,-57.1792,158.096)">
                    <path d="M364.406,381.674L364.406,673.377L288.552,673.377L288.552,550.858L265.85,550.858L265.85,673.377L189.997,673.377L189.997,381.674L265.85,381.674L265.85,485.995L288.552,485.995L288.552,381.674L364.406,381.674Z" style="fill:rgb(200,78,63);fill-rule:nonzero;"/>
                    <path d="M622.632,381.674L622.632,576.623C622.632,598.724 621.911,614.249 620.47,623.198C619.028,632.147 614.764,641.336 607.677,650.765C600.591,660.194 591.252,667.341 579.66,672.206C568.069,677.07 554.406,679.503 538.671,679.503C521.254,679.503 505.879,676.62 492.546,670.854C479.213,665.089 469.243,657.581 462.637,648.332C456.031,639.083 452.127,629.324 450.926,619.054C449.724,608.784 449.124,587.193 449.124,554.281L449.124,381.674L524.977,381.674L524.977,600.406C524.977,613.138 525.668,621.276 527.049,624.82C528.431,628.363 531.223,630.135 535.427,630.135C540.232,630.135 543.325,628.183 544.706,624.279C546.088,620.375 546.778,611.156 546.778,596.622L546.778,381.674L622.632,381.674Z" style="fill:rgb(200,78,63);fill-rule:nonzero;"/>
                    <path d="M707.35,381.674L761.042,381.674C796.837,381.674 821.07,383.055 833.742,385.818C846.415,388.581 856.745,395.638 864.732,406.989C872.72,418.34 876.714,436.447 876.714,461.311C876.714,484.013 873.891,499.268 868.246,507.076C862.6,514.883 851.49,519.568 834.914,521.129C849.928,524.853 860.018,529.838 865.183,536.084C870.348,542.33 873.561,548.065 874.822,553.29C876.083,558.515 876.714,572.899 876.714,596.442L876.714,673.377L806.266,673.377L806.266,576.443C806.266,560.828 805.035,551.158 802.572,547.435C800.11,543.711 793.654,541.849 783.204,541.849L783.204,673.377L707.35,673.377L707.35,381.674ZM783.204,431.582L783.204,496.445C791.732,496.445 797.708,495.274 801.131,492.932C804.554,490.59 806.266,482.992 806.266,470.14L806.266,454.104C806.266,444.855 804.614,438.789 801.311,435.907C798.008,433.024 791.972,431.582 783.204,431.582Z" style="fill:rgb(200,78,63);fill-rule:nonzero;"/>
                    <path d="M961.432,381.674L1037.11,381.674C1061.01,381.674 1079.12,383.534 1091.43,387.255C1103.74,390.976 1113.68,398.508 1121.25,409.852C1128.81,421.195 1132.6,439.471 1132.6,464.678C1132.6,481.723 1129.92,493.607 1124.58,500.329C1119.24,507.051 1108.69,512.212 1092.96,515.814C1110.5,519.78 1122.39,526.36 1128.63,535.554C1134.88,544.749 1138,558.841 1138,577.831L1138,604.871C1138,624.581 1135.75,639.184 1131.25,648.679C1126.74,658.173 1119.57,664.664 1109.72,668.149C1099.87,671.634 1079.69,673.377 1049.18,673.377L961.432,673.377L961.432,381.674ZM1037.29,431.582L1037.29,496.445C1040.53,496.325 1043.05,496.265 1044.85,496.265C1052.3,496.265 1057.05,494.433 1059.09,490.77C1061.13,487.106 1062.15,476.626 1062.15,459.329C1062.15,450.2 1061.31,443.804 1059.63,440.141C1057.95,436.477 1055.75,434.165 1053.05,433.204C1050.35,432.243 1045.09,431.703 1037.29,431.582ZM1037.29,541.849L1037.29,623.468C1047.98,623.108 1054.79,621.426 1057.74,618.423C1060.68,615.42 1062.15,608.033 1062.15,596.262L1062.15,569.056C1062.15,556.563 1060.83,548.996 1058.19,546.354C1055.54,543.711 1048.58,542.21 1037.29,541.849Z" style="fill:rgb(200,78,63);fill-rule:nonzero;"/>
                    <path d="M1381.28,469.96L1310.83,469.96L1310.83,448.339C1310.83,438.249 1309.93,431.823 1308.12,429.06C1306.32,426.297 1303.32,424.916 1299.12,424.916C1294.55,424.916 1291.1,426.779 1288.76,430.506C1286.41,434.232 1285.24,439.882 1285.24,447.455C1285.24,457.19 1286.56,464.521 1289.19,469.45C1291.71,474.379 1298.85,480.323 1310.63,487.284C1344.39,507.325 1365.66,523.772 1374.43,536.624C1383.2,549.477 1387.58,570.197 1387.58,598.784C1387.58,619.565 1385.15,634.879 1380.28,644.729C1375.42,654.578 1366.02,662.836 1352.09,669.503C1338.15,676.169 1321.94,679.503 1303.44,679.503C1283.14,679.503 1265.81,675.659 1251.46,667.971C1237.11,660.284 1227.71,650.494 1223.26,638.603C1218.82,626.711 1216.6,609.835 1216.6,587.974L1216.6,568.875L1287.04,568.875L1287.04,604.37C1287.04,615.3 1288.04,622.327 1290.02,625.45C1292,628.573 1295.51,630.135 1300.56,630.135C1305.6,630.135 1309.36,628.153 1311.82,624.189C1314.28,620.225 1315.51,614.339 1315.51,606.532C1315.51,589.355 1313.17,578.124 1308.48,572.839C1303.68,567.554 1291.85,558.726 1272.99,546.354C1254.13,533.861 1241.64,524.793 1235.51,519.147C1229.39,513.502 1224.31,505.694 1220.29,495.725C1216.27,485.755 1214.25,473.023 1214.25,457.528C1214.25,435.186 1217.11,418.85 1222.81,408.52C1228.52,398.19 1237.74,390.112 1250.47,384.287C1263.2,378.461 1278.58,375.548 1296.59,375.548C1316.29,375.548 1333.08,378.731 1346.95,385.097C1360.83,391.464 1370.01,399.481 1374.52,409.151C1379.02,418.82 1381.28,435.246 1381.28,458.428L1381.28,469.96Z" style="fill:rgb(200,78,63);fill-rule:nonzero;"/>
                </g>
            </g>
        </g>
    </g>
</svg>
